<?xml version="1.0" standalone="no"?>
<!DOCTYPE svg PUBLIC "-//W3C//DTD SVG 20010904//EN"
 "http://www.w3.org/TR/2001/REC-SVG-20010904/DTD/svg10.dtd">
<svg version="1.0" xmlns="http://www.w3.org/2000/svg"
 width="706.000000pt" height="179.000000pt" viewBox="0 0 706.000000 179.000000"
 preserveAspectRatio="xMidYMid meet">

<g transform="translate(0.000000,179.000000) scale(0.100000,-0.100000)"
fill="#957c54" stroke="none">
<path d="M59 1724 l-24 -26 0 -608 0 -608 24 -26 c30 -32 87 -35 122 -7 24 19
24 21 27 249 l3 230 49 46 c27 25 56 46 63 46 26 0 53 -32 247 -295 106 -143
201 -268 212 -277 11 -10 35 -18 54 -18 47 0 74 29 74 79 0 35 -22 69 -220
338 -121 164 -220 307 -220 318 0 13 76 96 211 230 116 116 217 222 225 237
33 62 3 118 -63 118 -35 0 -51 -14 -303 -265 -275 -274 -276 -274 -317 -242
-10 7 -13 64 -13 224 0 264 -6 283 -94 283 -22 0 -40 -8 -57 -26z"/>
<path d="M4945 1360 c-59 -9 -140 -48 -190 -91 l-35 -31 0 36 c0 50 -28 76
-83 76 -32 0 -49 -6 -63 -21 -18 -20 -19 -42 -19 -439 0 -397 1 -419 19 -439
14 -16 31 -21 67 -21 79 0 79 -1 79 320 0 170 4 290 11 315 31 112 174 168
365 142 57 -8 63 -7 83 14 30 33 27 72 -9 102 -16 14 -42 28 -57 31 -61 11
-120 13 -168 6z"/>
<path d="M2025 1340 c-19 -21 -20 -40 -23 -434 -2 -445 -2 -449 52 -474 30
-15 60 -11 91 12 19 14 20 29 25 308 5 319 6 321 67 382 48 49 108 70 198 70
127 0 207 -49 245 -150 18 -50 20 -77 20 -307 0 -273 3 -291 54 -315 32 -16
69 -9 96 18 19 19 20 34 20 293 0 198 -4 286 -14 323 -32 123 -115 220 -223
264 -55 23 -71 24 -323 28 -262 3 -266 3 -285 -18z"/>
<path d="M3633 1350 c-270 -57 -421 -362 -317 -640 102 -270 451 -375 717
-216 81 49 88 117 14 147 -28 12 -36 10 -96 -23 -36 -20 -93 -42 -127 -49
-166 -34 -345 74 -378 228 l-7 32 346 3 c400 3 375 -3 375 102 0 170 -84 312
-224 381 -65 32 -83 37 -167 40 -52 2 -113 0 -136 -5z m196 -146 c83 -24 155
-112 176 -211 l7 -33 -286 0 c-157 0 -286 4 -286 8 0 57 89 186 151 218 68 35
159 42 238 18z"/>
<path d="M6431 1345 c-164 -46 -287 -173 -326 -336 -54 -230 46 -459 242 -552
l68 -32 269 -3 c149 -2 280 -1 294 3 48 12 55 55 50 315 -4 221 -6 239 -30
307 -46 129 -127 217 -254 274 -57 26 -83 32 -164 35 -65 3 -112 -1 -149 -11z
m262 -169 c109 -53 174 -174 165 -309 -8 -125 -64 -214 -166 -264 -47 -23 -70
-28 -132 -28 -180 1 -304 130 -303 316 1 150 83 265 223 310 51 17 152 5 213
-25z"/>
<path d="M1362 1327 c-22 -23 -22 -26 -22 -438 0 -404 1 -416 20 -437 31 -33
102 -31 129 4 20 26 21 37 21 434 0 397 -1 408 -21 434 -28 35 -95 37 -127 3z"/>
<path d="M5564 1329 c-18 -20 -19 -47 -24 -498 l-5 -476 -25 -45 c-33 -59 -98
-98 -181 -110 -76 -11 -99 -32 -99 -91 0 -59 26 -79 100 -79 122 0 242 62 308
159 68 100 67 85 70 622 3 481 3 486 -18 512 -28 35 -97 38 -126 6z"/>
</g>
</svg>
