<?xml version="1.0" standalone="no"?>
<!DOCTYPE svg PUBLIC "-//W3C//DTD SVG 20010904//EN"
 "http://www.w3.org/TR/2001/REC-SVG-20010904/DTD/svg10.dtd">
<svg version="1.0" xmlns="http://www.w3.org/2000/svg"
 width="154.000000pt" height="152.000000pt" viewBox="0 0 154.000000 152.000000"
 preserveAspectRatio="xMidYMid meet">

<g transform="translate(0.000000,152.000000) scale(0.100000,-0.100000)"
fill="#957c54" stroke="none">
<path d="M210 745 l0 -585 590 0 590 0 0 280 0 280 -80 0 -80 0 0 -206 0 -205
-22 3 c-23 3 -23 4 -26 206 l-2 202 -75 0 -75 0 0 -205 0 -205 -25 0 -25 0 0
205 0 205 -75 0 -75 0 -2 -202 c-3 -202 -3 -203 -25 -206 l-23 -3 0 510 0 511
-180 0 -180 0 0 -280 0 -280 75 0 75 0 0 205 0 205 25 0 25 0 0 -436 0 -435
-22 3 c-23 3 -23 4 -26 206 l-2 202 -100 0 -100 0 0 305 0 305 -80 0 -80 0 0
-585z m208 -302 c-3 -124 -4 -128 -25 -131 -23 -3 -23 -3 -23 127 l0 131 25 0
26 0 -3 -127z"/>
<path d="M830 1050 l0 -280 280 0 280 0 0 280 0 280 -80 0 -80 0 0 -200 0
-200 -125 0 -125 0 0 125 0 125 100 0 100 0 0 75 0 75 -175 0 -175 0 0 -280z"/>
<path d="M1030 1055 l0 -75 75 0 75 0 0 75 0 75 -75 0 -75 0 0 -75z"/>
</g>
</svg>
